TITLE ""
FILE "P1Q_t_0301-0309.mp3" MP3
  TRACK 01 AUDIO
    TITLE "P1Q_t_0301-0309_01"
    INDEX 01 00:00:00
  TRACK 02 AUDIO
    TITLE "P1Q_t_0301-0309_02"
    INDEX 01 00:01:51
  TRACK 03 AUDIO
    TITLE "P1Q_t_0301-0309_03"
    INDEX 01 00:02:23
  TRACK 04 AUDIO
    TITLE "P1Q_t_0301-0309_04"
    INDEX 01 00:03:28
  TRACK 05 AUDIO
    TITLE "P1Q_t_0301-0309_05"
    INDEX 01 00:04:04
  TRACK 06 AUDIO
    TITLE "P1Q_t_0301-0309_06"
    INDEX 01 00:05:10
  TRACK 07 AUDIO
    TITLE "P1Q_t_0301-0309_07"
    INDEX 01 00:05:29
  TRACK 08 AUDIO
    TITLE "P1Q_t_0301-0309_08"
    INDEX 01 00:11:02
  TRACK 09 AUDIO
    TITLE "P1Q_t_0301-0309_09"
    INDEX 01 00:11:22
  TRACK 10 AUDIO
    TITLE "P1Q_t_0301-0309_10"
    INDEX 01 00:17:32
  TRACK 11 AUDIO
    TITLE "P1Q_t_0301-0309_11"
    INDEX 01 00:18:02
  TRACK 12 AUDIO
    TITLE "P1Q_t_0301-0309_12"
    INDEX 01 00:19:17
  TRACK 13 AUDIO
    TITLE "P1Q_t_0301-0309_13"
    INDEX 01 00:19:39
  TRACK 14 AUDIO
    TITLE "P1Q_t_0301-0309_14"
    INDEX 01 00:22:33
  TRACK 15 AUDIO
    TITLE "P1Q_t_0301-0309_15"
    INDEX 01 00:22:53
  TRACK 16 AUDIO
    TITLE "P1Q_t_0301-0309_16"
    INDEX 01 00:28:36
  TRACK 17 AUDIO
    TITLE "P1Q_t_0301-0309_17"
    INDEX 01 00:29:06
  TRACK 18 AUDIO
    TITLE "P1Q_t_0301-0309_18"
    INDEX 01 00:30:21
  TRACK 19 AUDIO
    TITLE "P1Q_t_0301-0309_19"
    INDEX 01 00:30:39
  TRACK 20 AUDIO
    TITLE "P1Q_t_0301-0309_20"
    INDEX 01 00:33:69
  TRACK 21 AUDIO
    TITLE "P1Q_t_0301-0309_21"
    INDEX 01 00:34:17
  TRACK 22 AUDIO
    TITLE "P1Q_t_0301-0309_22"
    INDEX 01 00:38:66
  TRACK 23 AUDIO
    TITLE "P1Q_t_0301-0309_23"
    INDEX 01 00:39:36
  TRACK 24 AUDIO
    TITLE "P1Q_t_0301-0309_24"
    INDEX 01 00:40:49
  TRACK 25 AUDIO
    TITLE "P1Q_t_0301-0309_25"
    INDEX 01 00:41:01
  TRACK 26 AUDIO
    TITLE "P1Q_t_0301-0309_26"
    INDEX 01 00:45:13
  TRACK 27 AUDIO
    TITLE "P1Q_t_0301-0309_27"
    INDEX 01 00:45:34
  TRACK 28 AUDIO
    TITLE "P1Q_t_0301-0309_28"
    INDEX 01 00:49:21
  TRACK 29 AUDIO
    TITLE "P1Q_t_0301-0309_29"
    INDEX 01 00:49:70
  TRACK 30 AUDIO
    TITLE "P1Q_t_0301-0309_30"
    INDEX 01 00:51:19
  TRACK 31 AUDIO
    TITLE "P1Q_t_0301-0309_31"
    INDEX 01 00:51:41
  TRACK 32 AUDIO
    TITLE "P1Q_t_0301-0309_32"
    INDEX 01 00:55:70
  TRACK 33 AUDIO
    TITLE "P1Q_t_0301-0309_33"
    INDEX 01 00:56:15
  TRACK 34 AUDIO
    TITLE "P1Q_t_0301-0309_34"
    INDEX 01 01:00:24
  TRACK 35 AUDIO
    TITLE "P1Q_t_0301-0309_35"
    INDEX 01 01:00:67
  TRACK 36 AUDIO
    TITLE "P1Q_t_0301-0309_36"
    INDEX 01 01:02:19
  TRACK 37 AUDIO
    TITLE "P1Q_t_0301-0309_37"
    INDEX 01 01:02:39
  TRACK 38 AUDIO
    TITLE "P1Q_t_0301-0309_38"
    INDEX 01 01:05:70
  TRACK 39 AUDIO
    TITLE "P1Q_t_0301-0309_39"
    INDEX 01 01:06:15
  TRACK 40 AUDIO
    TITLE "P1Q_t_0301-0309_40"
    INDEX 01 01:09:62
  TRACK 41 AUDIO
    TITLE "P1Q_t_0301-0309_41"
    INDEX 01 01:10:32
  TRACK 42 AUDIO
    TITLE "P1Q_t_0301-0309_42"
    INDEX 01 01:11:67
  TRACK 43 AUDIO
    TITLE "P1Q_t_0301-0309_43"
    INDEX 01 01:12:12
  TRACK 44 AUDIO
    TITLE "P1Q_t_0301-0309_44"
    INDEX 01 01:15:65
  TRACK 45 AUDIO
    TITLE "P1Q_t_0301-0309_45"
    INDEX 01 01:16:10
  TRACK 46 AUDIO
    TITLE "P1Q_t_0301-0309_46"
    INDEX 01 01:20:01
  TRACK 47 AUDIO
    TITLE "P1Q_t_0301-0309_47"
    INDEX 01 01:20:49
  TRACK 48 AUDIO
    TITLE "P1Q_t_0301-0309_48"
    INDEX 01 01:21:66
  TRACK 49 AUDIO
    TITLE "P1Q_t_0301-0309_49"
    INDEX 01 01:22:10
  TRACK 50 AUDIO
    TITLE "P1Q_t_0301-0309_50"
    INDEX 01 01:25:50
  TRACK 51 AUDIO
    TITLE "P1Q_t_0301-0309_51"
    INDEX 01 01:25:69
  TRACK 52 AUDIO
    TITLE "P1Q_t_0301-0309_52"
    INDEX 01 01:30:12
  TRACK 53 AUDIO
    TITLE "P1Q_t_0301-0309_53"
    INDEX 01 01:30:57
  TRACK 54 AUDIO
    TITLE "P1Q_t_0301-0309_54"
    INDEX 01 01:32:12
  TRACK 55 AUDIO
    TITLE "P1Q_t_0301-0309_55"
    INDEX 01 01:32:32
  TRACK 56 AUDIO
    TITLE "P1Q_t_0301-0309_56"
    INDEX 01 01:36:53
  TRACK 57 AUDIO
    TITLE "P1Q_t_0301-0309_57"
    INDEX 01 01:36:73
  TRACK 58 AUDIO
    TITLE "P1Q_t_0301-0309_58"
    INDEX 01 01:41:62
